<svg width="23" height="22" viewBox="0 0 23 22" fill="none" xmlns="http://www.w3.org/2000/svg">
<path d="M15.2572 8.45109C15.3211 8.51494 15.3718 8.59077 15.4064 8.67423C15.441 8.75769 15.4588 8.84715 15.4588 8.9375C15.4588 9.02785 15.441 9.11731 15.4064 9.20077C15.3718 9.28423 15.3211 9.36006 15.2572 9.42391L10.4447 14.2364C10.3808 14.3003 10.305 14.351 10.2215 14.3856C10.1381 14.4202 10.0486 14.438 9.95825 14.438C9.8679 14.438 9.77844 14.4202 9.69498 14.3856C9.61152 14.351 9.5357 14.3003 9.47185 14.2364L7.40935 12.1739C7.28034 12.0449 7.20787 11.8699 7.20787 11.6875C7.20787 11.5051 7.28034 11.3301 7.40935 11.2011C7.53835 11.0721 7.71331 10.9996 7.89575 10.9996C8.07819 10.9996 8.25316 11.0721 8.38216 11.2011L9.95825 12.778L14.2843 8.45109C14.3482 8.38717 14.424 8.33646 14.5075 8.30187C14.5909 8.26727 14.6804 8.24946 14.7708 8.24946C14.8611 8.24946 14.9506 8.26727 15.034 8.30187C15.1175 8.33646 15.1933 8.38717 15.2572 8.45109ZM19.5833 4.125V17.875C19.5833 18.2397 19.4384 18.5894 19.1805 18.8473C18.9227 19.1051 18.5729 19.25 18.2083 19.25H4.45825C4.09358 19.25 3.74384 19.1051 3.48598 18.8473C3.22812 18.5894 3.08325 18.2397 3.08325 17.875V4.125C3.08325 3.76033 3.22812 3.41059 3.48598 3.15273C3.74384 2.89487 4.09358 2.75 4.45825 2.75H18.2083C18.5729 2.75 18.9227 2.89487 19.1805 3.15273C19.4384 3.41059 19.5833 3.76033 19.5833 4.125ZM18.2083 17.875V4.125H4.45825V17.875H18.2083Z" fill="currentColor"/>
</svg>
