<svg width="32" height="32" viewBox="0 0 32 32" fill="none" xmlns="http://www.w3.org/2000/svg">
<path d="M25.0962 6.73626C22.6759 4.33949 19.4063 2.99651 16 3.00001H15.8662C12.4417 3.03524 9.16932 4.42042 6.7602 6.85459C4.35108 9.28875 2.99982 12.5752 3 16C3 21.375 6.3225 25.8825 11.67 27.7713C12.2731 27.9839 12.9185 28.0488 13.5519 27.9606C14.1853 27.8724 14.7883 27.6335 15.3104 27.2642C15.8324 26.8948 16.2583 26.4056 16.5523 25.8376C16.8463 25.2697 16.9998 24.6395 17 24C17 23.4696 17.2107 22.9609 17.5858 22.5858C17.9609 22.2107 18.4696 22 19 22H24.7762C25.6836 22.0044 26.5652 21.6983 27.2746 21.1326C27.984 20.5669 28.4786 19.7756 28.6762 18.89C28.8998 17.9059 29.0084 16.8992 29 15.89C28.9873 14.1818 28.6357 12.4932 27.9656 10.9219C27.2955 9.35058 26.3202 7.92789 25.0962 6.73626ZM26.7212 18.45C26.6219 18.8912 26.375 19.2853 26.0214 19.5671C25.6677 19.8489 25.2285 20.0017 24.7762 20H19C17.9391 20 16.9217 20.4214 16.1716 21.1716C15.4214 21.9217 15 22.9391 15 24C14.9995 24.3195 14.9226 24.6342 14.7755 24.9178C14.6285 25.2014 14.4156 25.4456 14.1548 25.6301C13.894 25.8145 13.5927 25.9338 13.2764 25.9779C12.96 26.0221 12.6376 25.9898 12.3362 25.8838C7.81125 24.2875 5 20.5 5 16C4.99984 13.1022 6.14314 10.3214 8.1815 8.26177C10.2199 6.20211 12.9886 5.02997 15.8862 5.00001H15.9987C18.8965 5.01126 21.6737 6.16098 23.7315 8.20122C25.7892 10.2415 26.9627 13.0087 26.9987 15.9063C27.0062 16.7618 26.9148 17.6154 26.7262 18.45H26.7212ZM17.5 9.50001C17.5 9.79668 17.412 10.0867 17.2472 10.3334C17.0824 10.58 16.8481 10.7723 16.574 10.8858C16.2999 10.9994 15.9983 11.0291 15.7074 10.9712C15.4164 10.9133 15.1491 10.7704 14.9393 10.5607C14.7296 10.3509 14.5867 10.0836 14.5288 9.79264C14.4709 9.50167 14.5006 9.20007 14.6142 8.92598C14.7277 8.65189 14.92 8.41762 15.1666 8.2528C15.4133 8.08798 15.7033 8.00001 16 8.00001C16.3978 8.00001 16.7794 8.15804 17.0607 8.43935C17.342 8.72065 17.5 9.10218 17.5 9.50001ZM12 12.5C12 12.7967 11.912 13.0867 11.7472 13.3334C11.5824 13.58 11.3481 13.7723 11.074 13.8858C10.7999 13.9994 10.4983 14.0291 10.2074 13.9712C9.91639 13.9133 9.64912 13.7704 9.43934 13.5607C9.22956 13.3509 9.0867 13.0836 9.02882 12.7926C8.97094 12.5017 9.00065 12.2001 9.11418 11.926C9.22771 11.6519 9.41997 11.4176 9.66664 11.2528C9.91332 11.088 10.2033 11 10.5 11C10.8978 11 11.2794 11.158 11.5607 11.4393C11.842 11.7207 12 12.1022 12 12.5ZM12 19.5C12 19.7967 11.912 20.0867 11.7472 20.3334C11.5824 20.58 11.3481 20.7723 11.074 20.8858C10.7999 20.9994 10.4983 21.0291 10.2074 20.9712C9.91639 20.9133 9.64912 20.7704 9.43934 20.5607C9.22956 20.3509 9.0867 20.0836 9.02882 19.7926C8.97094 19.5017 9.00065 19.2001 9.11418 18.926C9.22771 18.6519 9.41997 18.4176 9.66664 18.2528C9.91332 18.088 10.2033 18 10.5 18C10.8978 18 11.2794 18.158 11.5607 18.4393C11.842 18.7207 12 19.1022 12 19.5ZM23 12.5C23 12.7967 22.912 13.0867 22.7472 13.3334C22.5824 13.58 22.3481 13.7723 22.074 13.8858C21.7999 13.9994 21.4983 14.0291 21.2074 13.9712C20.9164 13.9133 20.6491 13.7704 20.4393 13.5607C20.2296 13.3509 20.0867 13.0836 20.0288 12.7926C19.9709 12.5017 20.0006 12.2001 20.1142 11.926C20.2277 11.6519 20.42 11.4176 20.6666 11.2528C20.9133 11.088 21.2033 11 21.5 11C21.8978 11 22.2794 11.158 22.5607 11.4393C22.842 11.7207 23 12.1022 23 12.5Z" fill="#currentColor"/>
</svg>
