<svg width="32" height="32" viewBox="0 0 32 32" fill="none" xmlns="http://www.w3.org/2000/svg">
<path fill-rule="evenodd" clip-rule="evenodd" d="M8.20134 17.5302L13 28H8H5V27.4631C5 25.838 5.33009 24.2298 5.97026 22.7361L8.20134 17.5302ZM23.7987 17.5302L19 28H24H27L27 27.4631C27 25.838 26.6699 24.2298 26.0297 22.736L23.7987 17.5302Z" fill="#37437D"/>
<path fill-rule="evenodd" clip-rule="evenodd" d="M13.3762 26.5444C13.8883 25.6233 14.8714 25 16 25C17.1287 25 18.1117 25.6233 18.6238 26.5444L26.0297 9.26394C26.6699 7.77022 27 6.16203 27 4.53691V4H19C19 5.65686 17.6569 7 16 7C14.3431 7 13 5.65685 13 4H5V4.53691C5 6.16203 5.33009 7.77022 5.97026 9.26394L13.3762 26.5444Z" fill="#F26CF9"/>
</svg>
