<svg width="14" height="14" viewBox="0 0 14 14" fill="none" xmlns="http://www.w3.org/2000/svg">
<path fill-rule="evenodd" clip-rule="evenodd" d="M4.50314 8.00314C4.674 7.83229 4.951 7.83229 5.12186 8.00314L7 9.88128L8.87814 8.00314C9.049 7.83229 9.326 7.83229 9.49686 8.00314C9.66771 8.174 9.66771 8.451 9.49686 8.62186L7.30936 10.8094C7.1385 10.9802 6.8615 10.9802 6.69064 10.8094L4.50314 8.62186C4.33229 8.451 4.33229 8.174 4.50314 8.00314Z" fill="#777779"/>
<path fill-rule="evenodd" clip-rule="evenodd" d="M4.50314 5.99686C4.674 6.16771 4.951 6.16771 5.12186 5.99686L7 4.11872L8.87814 5.99686C9.049 6.16771 9.326 6.16771 9.49686 5.99686C9.66771 5.826 9.66771 5.549 9.49686 5.37814L7.30936 3.19064C7.1385 3.01979 6.8615 3.01979 6.69064 3.19064L4.50314 5.37814C4.33229 5.549 4.33229 5.826 4.50314 5.99686Z" fill="#777779"/>
</svg>
