<svg width="15" height="15" viewBox="0 0 15 15" fill="currentColor" xmlns="http://www.w3.org/2000/svg">
<path d="M10.2353 6.3206C10.276 6.36123 10.3083 6.40948 10.3303 6.46259C10.3523 6.5157 10.3636 6.57263 10.3636 6.63013C10.3636 6.68762 10.3523 6.74455 10.3303 6.79766C10.3083 6.85077 10.276 6.89903 10.2353 6.93966L7.17282 10.0022C7.13218 10.0428 7.08393 10.0751 7.03082 10.0971C6.97771 10.1191 6.92078 10.1305 6.86328 10.1305C6.80579 10.1305 6.74886 10.1191 6.69575 10.0971C6.64264 10.0751 6.59438 10.0428 6.55375 10.0022L5.24125 8.68966C5.15916 8.60757 5.11304 8.49622 5.11304 8.38013C5.11304 8.26403 5.15916 8.15269 5.24125 8.0706C5.32335 7.9885 5.43469 7.94238 5.55078 7.94238C5.66688 7.94238 5.77822 7.9885 5.86032 8.0706L6.86328 9.07411L9.61625 6.3206C9.65688 6.27992 9.70514 6.24765 9.75825 6.22563C9.81136 6.20362 9.86829 6.19228 9.92578 6.19228C9.98328 6.19228 10.0402 6.20362 10.0933 6.22563C10.1464 6.24765 10.1947 6.27992 10.2353 6.3206ZM13.4258 7.94263C13.4258 9.06751 13.0922 10.1671 12.4673 11.1024C11.8423 12.0377 10.9541 12.7667 9.9148 13.1972C8.87554 13.6277 7.73197 13.7403 6.62871 13.5208C5.52544 13.3014 4.51203 12.7597 3.71661 11.9643C2.9212 11.1689 2.37952 10.1555 2.16007 9.0522C1.94061 7.94894 2.05325 6.80537 2.48372 5.76611C2.91419 4.72686 3.64317 3.83859 4.57848 3.21364C5.51378 2.58869 6.6134 2.25513 7.73828 2.25513C9.24621 2.25672 10.6919 2.85645 11.7582 3.92272C12.8245 4.98898 13.4242 6.4347 13.4258 7.94263ZM12.5508 7.94263C12.5508 6.9908 12.2685 6.06036 11.7397 5.26895C11.2109 4.47753 10.4593 3.8607 9.57995 3.49646C8.70058 3.13221 7.73295 3.03691 6.79941 3.2226C5.86588 3.40829 5.00837 3.86664 4.33533 4.53968C3.66229 5.21272 3.20395 6.07022 3.01825 7.00376C2.83256 7.93729 2.92787 8.90492 3.29211 9.78429C3.65636 10.6637 4.27319 11.4153 5.0646 11.9441C5.85601 12.4729 6.78646 12.7551 7.73828 12.7551C9.01419 12.7537 10.2374 12.2462 11.1396 11.344C12.0418 10.4418 12.5493 9.21854 12.5508 7.94263Z" fill="currentColor"/>
</svg>
